<svg width="103" height="44" viewBox="0 0 103 44" fill="none" xmlns="http://www.w3.org/2000/svg">
<path d="M12.9208 0.922696C14.0263 0.922696 14.7273 0.826696 15.1857 0.730696C15.6441 0.634696 15.8598 0.538696 15.9676 0.538696C17.5854 0.538696 18.5291 3.7387 18.5291 5.2587C18.5291 6.6507 18.0168 7.88803 16.6956 7.88803C14.6464 7.88803 15.6441 4.56003 12.8668 4.56003C10.4401 4.56003 10.3592 4.9387 10.2244 6.11203C10.0896 6.93336 9.79302 8.96536 9.79302 9.7547C9.79302 10.1654 10.0626 10.1334 10.3592 10.1334C12.1658 10.1334 11.0333 7.24803 13.0286 7.24803C14.4037 7.24803 14.7003 9.4027 14.7003 10.64C14.7003 12.416 14.4846 17.104 12.3006 17.104C10.3053 17.104 11.8153 13.776 10.3053 13.776C9.79301 13.776 9.28071 13.68 9.28071 18.528C9.28071 20.5227 11.1412 19.4774 11.1412 21.0934C11.1412 23.504 7.09668 23.376 5.72155 23.376C1.54223 23.376 0.140137 22.9334 0.140137 21.1254C0.140137 19.3494 1.56919 20.272 2.10846 18.7147C2.86343 16.496 3.78019 8.6987 3.78019 6.22936C3.78019 3.47203 1.97364 5.08803 1.97364 2.86936C1.97364 1.12536 3.56448 0.778696 4.75087 0.778696C6.9349 0.778696 7.87862 0.906696 8.8493 0.906696H12.9208V0.922696Z" fill="white"/>
<path d="M34.0438 15.9734C33.9629 16.448 33.882 16.9547 33.882 17.4294C33.882 18.128 34.1786 18.3787 34.7178 18.3787C35.338 18.4107 35.6616 18.3787 35.6616 19.232C35.6616 21.6747 31.1587 23.3494 29.5139 23.3494C27.7883 23.3494 28.5972 20.528 27.6534 20.528C27.0602 20.528 24.7684 23.4774 21.9642 23.3494C20.4542 23.2854 19.6184 22.144 19.5644 20.0854C19.5105 18.3094 20.1307 15.712 20.3464 13.5254C20.4273 12.704 20.616 11.9734 19.7262 11.8454C19.1869 11.7814 18.5938 11.6854 18.5938 10.864C18.5938 9.5947 20.1037 8.67737 20.9126 8.2347C22.2338 7.50403 23.7977 6.93337 25.2537 6.93337C26.2783 6.93337 26.6288 7.56803 26.6288 8.74137C26.6288 9.9787 26.0896 12.9867 25.8469 14.6347C25.793 15.0454 25.1189 18.1814 26.2783 18.1814C27.1411 18.1814 27.7613 16.912 28.0579 16.1547C29.1634 13.1734 28.6511 9.18403 29.8644 8.0107C30.6194 7.21603 32.5338 6.90137 33.5314 6.90137C34.3673 6.90137 35.0953 7.18403 35.0953 8.2667C35.0953 8.67737 34.9875 9.44003 34.9605 9.8507L34.0438 15.9734Z" fill="white"/>
<path d="M43.8855 16.1013C43.6159 17.4933 43.9664 18.3519 44.6405 18.3519C45.2876 18.3519 45.7729 17.7493 46.1774 17.7493C46.7436 17.7493 46.9054 18.3519 46.9054 18.8906C46.9054 21.3599 41.7823 23.3919 40.2131 23.3919C38.5953 23.3919 37.5167 22.4746 37.5167 20.4426C37.5167 19.4293 37.6516 18.4159 37.7864 17.4293L38.5953 11.8506C38.784 10.6133 38.7031 10.4586 37.6246 10.4586C36.9775 10.4586 36.627 10.2346 36.627 9.38128C36.627 8.01594 37.1932 7.25861 38.3256 7.13061C39.1885 7.00261 39.2694 6.68794 39.6468 5.23194C39.8895 4.28261 40.1861 3.35994 40.9141 2.94928C41.8578 2.41061 43.233 2.25061 44.2845 2.25061C44.9586 2.25061 45.3091 2.59728 45.3091 3.42394C45.2552 4.05861 45.0665 5.86661 45.0665 6.37328C45.0665 7.32261 45.9563 7.00794 46.7652 7.00794C47.1157 7.00794 47.4393 7.10394 47.4393 7.57861C47.4393 8.02128 47.3584 8.52794 47.3044 8.94394C47.2235 9.64261 47.2235 10.3093 46.4955 10.3093C44.6351 10.3093 44.6351 10.2133 44.2306 12.9706L43.8855 16.1013Z" fill="white"/>
<path d="M63.8167 15.9734C63.7358 16.448 63.6549 16.9547 63.6549 17.4294C63.6549 18.128 63.9515 18.3787 64.4908 18.3787C65.1109 18.4107 65.4345 18.3787 65.4345 19.232C65.4345 21.6747 60.9316 23.3494 59.2869 23.3494C57.5612 23.3494 58.3701 20.528 57.4264 20.528C56.8332 20.528 54.5413 23.4774 51.7371 23.3494C50.2272 23.2854 49.3913 22.144 49.3374 20.0854C49.2835 18.3094 49.9036 15.712 50.1193 13.5254C50.2002 12.704 50.389 11.9734 49.4992 11.8454C48.9599 11.7814 48.3667 11.6854 48.3667 10.864C48.3667 9.5947 49.8766 8.67737 50.6855 8.2347C52.0068 7.50403 53.5706 6.93337 55.0266 6.93337C56.0513 6.93337 56.4018 7.56803 56.4018 8.74137C56.4018 9.9787 55.8625 12.9867 55.6198 14.6347C55.5659 15.0454 54.8918 18.1814 56.0513 18.1814C56.9141 18.1814 57.5342 16.912 57.8308 16.1547C58.9363 13.1734 58.424 9.18403 59.6374 8.0107C60.3924 7.21603 62.3068 6.90137 63.3044 6.90137C64.1403 6.90137 64.8683 7.18403 64.8683 8.2667C64.8683 8.67737 64.7604 9.44003 64.7335 9.8507L63.8167 15.9734Z" fill="white"/>
<path d="M74.2841 18.9227C74.4458 21.9947 73.3134 23.2 69.6194 23.392C68.6218 23.456 67.5432 23.136 67.5432 21.712C67.5432 19.8133 68.6218 15.8507 68.6757 12.9013C68.7026 12.048 68.6218 11.792 67.8937 11.792C67.0579 11.792 66.6265 11.536 66.6265 10.4C66.6265 8.68801 68.8105 8.18134 69.8351 7.57868C70.5631 7.13601 71.4529 6.75734 72.3157 6.75734C73.9605 6.75734 73.2325 9.76534 74.0953 9.76534C74.8772 9.76534 74.7964 6.72534 77.3039 6.72534C79.0566 6.72534 80.243 8.50134 80.243 10.496C80.243 12.4267 79.4341 14.2987 77.6005 14.2987C76.6299 14.2987 76.2524 13.856 75.794 12.9387C75.7131 12.7467 75.4704 12.176 75.2547 12.176C74.8772 12.176 74.7155 13.5093 74.6885 13.792L74.2841 18.9227Z" fill="white"/>
<path fill-rule="evenodd" clip-rule="evenodd" d="M87.9274 0.0319824C86.2018 0.0319824 82.346 1.33332 82.346 3.86665C82.346 5.26398 83.829 5.54665 84.7458 5.61065C86.3636 5.73865 90.1384 4.15465 90.1654 1.83998C90.1924 0.474649 88.8981 0.0319824 87.9274 0.0319824ZM82.615 13.4696C82.58 13.6761 82.5425 13.8981 82.5078 14.1333L81.8068 19.5147C81.8029 19.5436 81.799 19.5726 81.7951 19.6014C81.7183 20.1723 81.645 20.717 81.645 21.2907C81.645 22.6187 82.8044 23.3493 83.829 23.3493C85.3659 23.3493 89.6261 21.8933 89.6261 19.4827C89.6261 18.72 89.2486 18.688 88.7363 18.688C88.3049 18.688 87.9544 18.688 88.0083 18.0853C88.1431 16.8533 88.6285 13.2053 88.6824 12.8586C88.691 12.7883 88.7084 12.6609 88.7317 12.491C88.8547 11.5919 89.1408 9.50115 89.1408 8.35731C89.1408 7.40798 88.7633 6.90131 87.9274 6.90131C86.5523 6.90131 84.5031 7.59998 83.2358 8.23465C83.2221 8.24157 83.2082 8.24853 83.1943 8.25554C82.308 8.70146 81.1057 9.30634 81.1057 10.6453C81.1057 11.7568 81.7194 11.7555 82.125 11.7547C82.1359 11.7547 82.1467 11.7546 82.1573 11.7546C82.6157 11.7546 82.7505 11.9786 82.7505 12.3893C82.7505 12.6678 82.6885 13.0345 82.615 13.4696Z" fill="white"/>
<path d="M101.064 11.728C99.9853 11.728 99.9853 9.88804 98.9607 9.88804C98.5023 9.88804 98.1249 10.2667 98.1249 10.8054C98.1249 12.864 101.981 14.384 101.981 18.1867C101.981 22.1174 98.044 23.5414 95.3207 23.5414C93.595 23.5414 90.4133 22.9707 90.4133 20.3094C90.4133 19.36 90.9256 18.0587 91.8424 18.0587C92.9749 18.0587 92.7861 20.1814 94.1343 20.1814C94.6735 20.1814 95.2937 19.8347 95.2937 19.136C95.2937 17.456 91.9233 15.808 91.9233 12.2614C91.9233 8.4587 95.6173 6.7467 98.3945 6.7467C99.7966 6.7467 102.493 7.28537 102.493 9.40804C102.493 10.3627 102.008 11.728 101.064 11.728Z" fill="white"/>
<path d="M21.1664 30.9281C21.42 30.9176 21.841 30.9176 21.841 31.3157C21.841 31.7295 21.5549 32.07 21.3606 32.3633C21.2689 32.4943 19.6822 34.3643 19.6822 34.7309C19.6822 34.8985 19.7848 34.93 19.9089 34.93C20.033 34.93 20.1733 34.909 20.2435 34.8933C20.6537 34.8357 20.6806 34.7728 20.7724 34.5895C20.8857 34.3538 20.9559 34.1914 21.2095 34.1914C21.5873 34.1914 21.6791 34.5109 21.6791 34.8985C21.6791 35.5114 21.2311 36.9624 20.6753 36.9624C20.4594 36.9624 20.3191 36.8943 20.0006 36.9152H17.6314C17.367 36.9152 17.0486 36.8209 17.0486 36.4543C17.0486 36.1505 17.2213 36.03 17.3346 35.8781C17.8581 35.1814 19.1533 33.5785 19.3153 33.1071C19.3638 32.9657 19.0886 32.9081 18.986 32.9081C18.333 32.9081 18.2305 32.9814 18.0146 33.3428C17.9445 33.4738 17.8419 33.5681 17.6962 33.5681C17.3076 33.5681 17.2159 33.0966 17.2159 32.73C17.2159 32.2847 17.5721 30.7971 18.074 30.7971C18.1333 30.7971 18.2197 30.8181 18.2791 30.8443C18.5219 30.9385 18.7594 30.9281 19.0238 30.9281H21.1664Z" fill="white"/>
<path fill-rule="evenodd" clip-rule="evenodd" d="M25.6728 30.7971C23.73 30.7971 22.1973 32.4576 22.1973 34.71C22.1973 36.25 23.2496 37.0409 24.5287 37.0409C26.4716 37.0409 28.0042 35.3805 28.0042 33.1281C28.0042 31.5881 26.9519 30.7971 25.6728 30.7971ZM24.5233 35.2495C24.5233 34.6 24.615 33.7985 24.7284 33.1647C24.7354 33.1307 24.7427 33.0932 24.7504 33.0534C24.8258 32.6644 24.9461 32.0438 25.3328 32.0438C25.6189 32.0438 25.6674 32.3476 25.6674 32.62C25.6674 33.2224 25.5271 34.1285 25.4246 34.7309C25.4203 34.7562 25.4159 34.7832 25.4113 34.8118C25.3517 35.1799 25.2532 35.789 24.8525 35.789C24.5827 35.789 24.5233 35.5219 24.5233 35.2495Z" fill="white"/>
<path d="M31.3718 35.3229C31.4311 36.4648 31.0048 36.9153 29.6016 36.9834C29.2238 37.0044 28.8137 36.8891 28.8137 36.3601C28.8137 35.6529 29.2238 34.181 29.2454 33.0863C29.2562 32.7668 29.2238 32.6725 28.9486 32.6725C28.6302 32.6725 28.4683 32.5782 28.4683 32.1539C28.4683 31.5201 29.294 31.3315 29.6825 31.1063C29.9578 30.9439 30.2978 30.8025 30.6216 30.8025C31.2422 30.8025 30.967 31.9234 31.2962 31.9234C31.593 31.9234 31.5606 30.792 32.5105 30.792C33.1743 30.792 33.6222 31.452 33.6222 32.1958C33.6222 32.9134 33.3146 33.6101 32.6184 33.6101C32.2514 33.6101 32.1057 33.4477 31.933 33.102C31.9006 33.0339 31.8089 32.8191 31.7279 32.8191C31.5822 32.8191 31.5229 33.3115 31.5121 33.4215L31.3718 35.3229Z" fill="white"/>
<path fill-rule="evenodd" clip-rule="evenodd" d="M38.0368 35.5691C38.733 35.5691 39.3266 35.9829 39.3266 36.8525C39.3266 38.5025 37.4755 38.9948 36.3422 38.9948C35.619 38.9948 33.9514 38.8168 33.9514 37.6644C33.9514 37.3945 34.0616 37.2639 34.1452 37.1648C34.1962 37.1043 34.2374 37.0555 34.2374 36.9939C34.2374 36.9428 34.1947 36.8876 34.138 36.8143C34.0261 36.6696 33.8596 36.4544 33.8596 36.0615C33.8596 35.5325 34.205 35.1658 34.6044 34.9772C34.6206 34.9698 34.6373 34.963 34.654 34.9562C34.743 34.9201 34.831 34.8843 34.831 34.752C34.831 34.6509 34.7937 34.6183 34.7335 34.5659C34.7251 34.5586 34.7162 34.5508 34.7069 34.5425C34.3399 34.1758 34.1672 33.8458 34.1672 33.2696C34.1672 31.5829 35.8025 30.8182 37.0383 30.8182C37.211 30.8182 37.3837 30.8391 37.5564 30.8653L37.641 30.8759C37.7856 30.8941 37.9309 30.9125 38.0799 30.9125C38.3791 30.9125 38.5188 30.6866 38.6465 30.4804C38.7537 30.3071 38.8524 30.1477 39.0298 30.1477C39.3482 30.1477 39.7152 30.6296 39.7152 30.9858C39.7152 31.2128 39.6275 31.3718 39.5639 31.487C39.5277 31.5526 39.4993 31.604 39.4993 31.6458C39.4993 31.6711 39.5223 31.7109 39.5551 31.7675L39.5551 31.7675C39.6443 31.9216 39.8061 32.201 39.7745 32.6568C39.6396 34.5529 38.1501 35.0715 36.871 35.0715C36.5427 35.0715 36.3068 35.0267 36.1436 34.9957L36.1436 34.9957C36.0573 34.9793 35.9913 34.9668 35.9428 34.9668C35.8079 34.9668 35.7053 35.082 35.7053 35.2391C35.7053 35.629 36.2658 35.6208 36.5326 35.6169H36.5326C36.5562 35.6166 36.5774 35.6163 36.5958 35.6163L38.0368 35.5691ZM37.238 37.6539C37.238 37.502 37.1247 37.4391 37.0114 37.4653C36.4547 37.5566 35.8902 37.4621 35.5297 37.4018C35.3729 37.3756 35.2548 37.3558 35.1926 37.3606C35.1117 37.371 35.1117 37.5125 35.1117 37.5753C35.1117 38.0834 35.8996 38.1515 36.2072 38.1515C36.4501 38.1463 37.238 38.0782 37.238 37.6539ZM37.1625 31.7872C37.4323 31.7872 37.5133 31.9863 37.4809 32.2482C37.4766 32.292 37.4722 32.3424 37.4673 32.3977C37.4177 32.9634 37.3225 34.0501 36.8063 34.0501C36.5364 34.0501 36.4555 33.8877 36.4771 33.6153C36.4785 33.5945 36.4799 33.5721 36.4814 33.5483C36.5155 33.016 36.5942 31.7872 37.1625 31.7872Z" fill="white"/>
<path d="M62.2957 36.0405C62.1446 36.0405 61.3566 37.0409 60.1315 37.0409C59.2033 37.0409 58.6474 36.3338 58.6474 35.2862C58.6474 34.5319 58.9442 33.2381 58.9442 32.8452C58.9442 32.5519 58.8633 32.5519 58.6366 32.5257C58.4207 32.5047 58.3506 32.3266 58.3506 32.0909C58.3506 31.6195 58.696 31.4571 59.036 31.3157C59.4731 31.1166 60.3312 30.8547 60.7953 30.8547C61.2325 30.8547 61.335 31.1743 61.335 31.63C61.335 32.3738 61.0382 33.5157 60.9573 34.3276C60.9141 34.8566 60.9465 35.3752 61.2433 35.3752C62.1607 35.3752 62.355 32.9814 62.3658 32.3005C62.3874 31.0381 63.1646 30.9228 64.2277 30.8652C64.6055 30.8443 64.789 30.97 64.789 31.4414C64.789 32.4681 64.3519 33.6781 64.3303 34.5266C64.3195 35.1395 64.4112 35.5533 64.7998 35.5533C65.6363 35.5533 66.0357 34.2124 66.0357 33.4109C66.0357 32.4209 65.5446 32.0228 65.5446 31.4676C65.5446 31.0171 65.9655 30.8547 66.2893 30.8547C67.0665 30.8547 67.2392 31.5043 67.2607 32.29C67.3309 34.7152 66.2084 37.0357 64.0604 37.0357C62.8246 37.0409 62.4144 36.0405 62.2957 36.0405Z" fill="white"/>
<path fill-rule="evenodd" clip-rule="evenodd" d="M70.3746 34.731C71.5295 34.731 72.9111 33.6258 72.9111 32.201C72.9111 31.1639 72.2257 30.7972 71.4162 30.792C69.5543 30.792 67.5737 32.3791 67.4819 34.8306C67.4279 36.4125 68.5127 37.0358 69.7594 37.0358C70.407 37.0358 70.9575 36.8577 71.5295 36.5644C71.9451 36.3391 72.6305 35.9515 72.6305 35.3282C72.6305 35.0925 72.4362 34.8358 72.2203 34.8358C72.0911 34.8358 71.9232 34.9426 71.7214 35.071C71.4175 35.2642 71.0369 35.5063 70.5959 35.5063C70.3422 35.5063 69.9752 35.3177 69.9752 34.9772C69.9752 34.731 70.2289 34.731 70.3746 34.731ZM70.1425 33.7672C70.0022 33.7672 69.9591 33.5787 69.9591 33.4372C69.9591 33.0601 70.2451 31.9653 70.6606 31.9653C70.8279 31.9653 70.8873 32.1801 70.8981 32.332C70.9305 32.8925 70.4286 33.7672 70.1425 33.7672Z" fill="white"/>
<path d="M76.2302 35.3229C76.2895 36.4648 75.8632 36.9153 74.46 36.9834C74.0822 37.0044 73.6721 36.8891 73.6721 36.3601C73.6721 35.6529 74.0822 34.181 74.1038 33.0863C74.1146 32.7668 74.0822 32.6725 73.807 32.6725C73.4886 32.6725 73.3267 32.5782 73.3267 32.1539C73.3267 31.5201 74.1524 31.3315 74.5409 31.1063C74.8162 30.9439 75.1562 30.8025 75.48 30.8025C76.106 30.8025 75.8254 31.9234 76.1546 31.9234C76.4514 31.9234 76.419 30.792 77.3689 30.792C78.0327 30.792 78.4806 31.452 78.4806 32.1958C78.4806 32.9134 78.173 33.6101 77.4768 33.6101C77.1098 33.6101 76.9641 33.4477 76.7914 33.102C76.759 33.0339 76.6673 32.8191 76.5863 32.8191C76.4406 32.8191 76.3813 33.3115 76.3705 33.4215L76.2302 35.3229Z" fill="white"/>
<path fill-rule="evenodd" clip-rule="evenodd" d="M81.6259 31.2179C81.6263 31.2153 81.6267 31.213 81.627 31.211L81.8105 29.6553C81.8161 29.5845 81.825 29.5019 81.8341 29.4162C81.8514 29.2544 81.8699 29.0819 81.8699 28.9586C81.8699 28.5605 81.708 28.4767 81.3896 28.4767C80.8283 28.4767 78.7937 28.7595 78.8369 29.7967C78.8423 30.1005 78.9232 30.111 79.1715 30.09C79.5169 30.0534 79.5492 30.1948 79.5492 30.5824C79.5492 31.8043 79.2673 33.5405 79.0483 34.8886C78.9913 35.2396 78.9386 35.5643 78.8962 35.8467C78.8638 36.0248 78.853 36.1976 78.853 36.3757C78.853 36.8734 79.1229 37.0357 79.5708 36.9886C80.9902 36.8576 81.1035 36.5172 81.1845 35.48C81.1953 35.3386 81.26 35.0086 81.4219 35.0086C81.552 35.0086 81.7145 35.5262 81.7763 35.7228C81.7811 35.7383 81.7854 35.7518 81.7889 35.7629C81.8143 35.8395 81.8381 35.9172 81.8618 35.9944C82.0192 36.5082 82.1696 36.9991 82.728 36.9991C83.2407 36.9991 84.6492 36.5067 84.6492 35.7629C84.6492 35.5238 84.5728 35.4855 84.4199 35.4089C84.4053 35.4016 84.39 35.3939 84.374 35.3857C84.2337 35.3019 84.2229 35.2914 84.1204 35.1238L83.6616 34.2753C83.6292 34.2176 83.5591 34.0867 83.5591 34.0395C83.5591 33.9704 83.6695 33.9153 83.7474 33.8764C83.7758 33.8623 83.7998 33.8503 83.8127 33.8405C84.3632 33.5105 84.8327 33.0234 84.8327 32.2481C84.8327 31.2791 84.3524 30.7867 83.5375 30.7867C82.9384 30.7867 82.5067 31.0957 82.0372 31.4834C82.0227 31.4944 82.0055 31.5085 81.9864 31.5241C81.9059 31.5899 81.7929 31.6824 81.7188 31.6824C81.5512 31.6824 81.6123 31.3026 81.6259 31.2179ZM82.2585 32.5153C82.4258 32.5153 82.4959 32.6672 82.4959 32.8453C82.4959 33.4581 81.7404 34.1757 81.368 34.1757C81.3086 34.1757 81.3086 34.0919 81.3086 34.0448C81.3086 33.5629 81.7781 32.5153 82.2585 32.5153Z" fill="white"/>
<path fill-rule="evenodd" clip-rule="evenodd" d="M54.9665 40.9737L54.9888 41.0489L55 41.1025L54.9387 41.1776L54.8773 41.2474L54.8215 41.3118L54.7769 41.3869L54.7323 41.4781L54.6877 41.5801L54.6486 41.6874L54.6152 41.8001L54.5873 41.9074L54.565 42.0254L54.5148 42.181L54.4646 42.3366L54.4144 42.4439L54.3586 42.5298L54.3028 42.6049L54.2415 42.6747L54.1801 42.7283L54.1188 42.7874L54.0184 42.8732L53.9459 42.9322L53.8065 43.0664L53.6838 43.2059L53.5555 43.3669L53.4328 43.5278L53.3212 43.6727L53.0201 44L52.5181 42.8464L52.4456 42.68L52.362 42.4654L52.2058 42.1113L52.0273 41.6874L51.8265 41.2206L51.5867 40.6679L51.3859 40.1957L51.174 39.7128L50.9007 39.085L50.7724 38.7953L50.6442 38.5055L50.5996 38.3982L50.4657 38.0763L50.3765 37.8724L50.2593 37.5987L50.1868 37.4324L50.1534 37.3626L50.1366 37.3197L50.1255 37.3036L50.1088 37.3197L49.7239 38.1031L47.8444 42.0147L47.5042 42.7176L47.019 43.7264L46.9967 43.7156L46.952 43.6727L46.9074 43.6244L46.8516 43.5654L46.7736 43.4688L46.7066 43.3722L46.662 43.3078L46.6174 43.2327L46.5616 43.1469L46.517 43.0664L46.4724 42.9913L46.4222 42.9L46.3776 42.8142L46.3385 42.7337L46.3051 42.6586L46.2716 42.5835L46.2437 42.4976L46.1991 42.4064L46.1601 42.3152L46.1378 42.2508L46.1154 42.1864L46.0708 42.0683L46.0318 41.9664L45.9983 41.8752L45.9649 41.7786L45.9091 41.6498L45.8701 41.5801L45.792 41.462L45.7083 41.344L45.5521 41.1776L45.3793 41.0274L45.2231 40.8611L45.0167 40.7162L45 40.6947L47.4373 35.8441L47.7886 35.1519L47.9504 34.8515L48.0954 34.5778L48.2236 34.3095L48.4021 33.9768L48.4914 33.8266L48.3854 33.6173L48.246 33.3813L48.1121 33.07L47.9504 32.791L47.8332 32.5335L47.6603 32.0881L47.5042 31.7876L47.3815 31.4818L47.2532 31.0686L47.1194 30.5857L47.0245 30.2691L46.9632 29.8882L46.9409 29.6843L46.9297 29.4804L46.9409 29.1799L46.9632 28.9331L47.0357 28.7077L47.1249 28.5145L47.203 28.2946L47.3257 27.9726L47.4707 27.6775L47.6046 27.3877L47.7607 27.0819L47.9057 26.8082L48.0675 26.5668L48.2069 26.3844L48.3742 26.1483L48.5304 25.9605L48.6866 25.7995L48.8371 25.6493L48.9933 25.5258L49.1997 25.381L49.406 25.2522L49.5956 25.1717L49.7685 25.1019L49.9861 25.0483L50.1757 25.0215L50.3765 25H50.4992L50.8003 25.0483L50.9732 25.1019L51.135 25.1556L51.3246 25.2307L51.5588 25.3649L51.7373 25.5044L51.9269 25.6868L52.111 25.9175L52.2616 26.159L52.362 26.3522L52.44 26.5883L52.6129 27.2321L52.7747 27.8707L52.903 28.4341L52.9922 28.9277L53.0814 29.5823L53.1205 30.0169L53.1037 30.2477L53.0424 30.7628L52.9253 31.3101L52.7022 32.0023L52.5237 32.453L52.1946 33.2042L51.9269 33.7837L52.0719 34.1325L52.1389 34.2666L52.2058 34.4276L52.295 34.6207L52.3954 34.8461L52.507 35.1197L52.6464 35.4739L52.7579 35.7422L52.8528 35.9783L52.9755 36.2841L53.1484 36.6973L53.2209 36.8904L53.2989 37.0836L53.4049 37.3572L53.4718 37.5343L53.5388 37.6953L53.6113 37.8885L53.7005 38.0924L53.8065 38.3392L53.8846 38.5377L53.9571 38.704L54.0519 38.9348L54.1244 39.1011L54.1969 39.2782L54.2415 39.3801L54.2861 39.4767L54.3865 39.7128L54.5036 39.9704L54.5817 40.1474L54.7379 40.4801L54.8717 40.7967L54.9052 40.8611L54.9331 40.904L54.9665 40.9737ZM49.8801 32.2866L49.9024 32.3027L51.4585 29.2926L51.174 29.0994L50.9063 28.9653L50.6944 28.874L50.5271 28.815L50.3151 28.756L50.1088 28.7077L49.8745 28.6702H49.6403L49.3781 28.6862L49.0602 28.7238L48.7981 28.7828L48.5415 28.8633L49.8801 32.2866Z" fill="white"/>
</svg>
