<?xml version="1.0" encoding="utf-8"?>
<!-- Generator: Adobe Illustrator 23.0.1, SVG Export Plug-In . SVG Version: 6.00 Build 0)  -->
<svg version="1.1" id="Laag_1" xmlns="http://www.w3.org/2000/svg" xmlns:xlink="http://www.w3.org/1999/xlink" x="0px" y="0px"
	 viewBox="0 0 140.5 61.3" style="enable-background:new 0 0 140.5 61.3;" xml:space="preserve">
<style type="text/css">
	.st0{fill:#003A70;}
	.st1{fill:#416BA9;}
</style>
<path class="st0" d="M17.5,1.2c1.5,0,2.5-0.1,3.1-0.3c0.6-0.1,0.9-0.3,1.1-0.3c2.2,0,3.5,4.4,3.5,6.5c0,1.9-0.7,3.6-2.5,3.6
	c-2.8,0-1.4-4.6-5.3-4.6c-3.3,0-3.4,0.5-3.6,2.2c-0.2,1.1-0.6,4-0.6,5.1c0,0.6,0.4,0.5,0.8,0.5c2.5,0,0.9-4,3.7-4
	c1.9,0,2.3,3,2.3,4.7c0,2.5-0.3,9-3.3,9c-2.7,0-0.7-4.6-2.7-4.6c-0.7,0-1.4-0.1-1.4,6.6c0,2.8,2.6,1.3,2.6,3.6
	c0,3.3-5.5,3.2-7.4,3.2c-5.7,0-7.7-0.6-7.7-3.1c0-2.5,2-1.2,2.7-3.3C3.7,22.8,5,12,5,8.6C5,4.8,2.5,7,2.5,3.9C2.5,1.5,4.7,1,6.3,1
	c3,0,4.3,0.2,5.6,0.2L17.5,1.2L17.5,1.2z"/>
<path class="st0" d="M46.5,22.1c-0.1,0.7-0.2,1.4-0.2,2c0,1,0.4,1.3,1.1,1.3c0.9,0,1.3,0,1.3,1.2c0,3.4-6.2,5.7-8.4,5.7
	c-2.4,0-1.3-3.9-2.6-3.9c-0.8,0-4,4.1-7.8,3.9c-2.1-0.1-3.2-1.7-3.3-4.5c-0.1-2.5,0.8-6.1,1.1-9.1c0.1-1.1,0.4-2.2-0.9-2.3
	c-0.7-0.1-1.6-0.2-1.6-1.4c0-1.8,2.1-3,3.2-3.6c1.8-1,4-1.8,6-1.8c1.4,0,1.9,0.9,1.9,2.5c0,1.7-0.7,5.9-1.1,8.2
	c-0.1,0.6-1,4.9,0.6,4.9c1.2,0,2-1.8,2.4-2.8c1.5-4.1,0.8-9.7,2.5-11.3c1-1.1,3.7-1.5,5-1.5c1.1,0,2.1,0.4,2.1,1.9
	c0,0.6-0.1,1.6-0.2,2.2L46.5,22.1z"/>
<path class="st0" d="M60,22.3c-0.4,1.9,0.1,3.1,1,3.1c0.9,0,1.6-0.8,2.1-0.8c0.8,0,1,0.8,1,1.6c0,3.4-7,6.2-9.2,6.2
	c-2.2,0-3.7-1.3-3.7-4.1c0-1.4,0.2-2.8,0.4-4.2l1.1-7.7c0.3-1.7,0.1-1.9-1.3-1.9c-0.9,0-1.4-0.3-1.4-1.5c0-1.9,0.8-2.9,2.3-3.1
	c1.2-0.2,1.3-0.6,1.8-2.6C54.5,5.9,55,4.6,56,4c1.3-0.7,3.2-1,4.6-1c0.9,0,1.4,0.5,1.4,1.6c-0.1,0.9-0.3,3.4-0.3,4.1
	c0,1.3,1.2,0.9,2.3,0.9c0.5,0,0.9,0.1,0.9,0.8c0,0.6-0.1,1.3-0.2,1.9c-0.1,1-0.1,1.9-1.1,1.9c-2.6,0-2.6-0.1-3.1,3.7L60,22.3z"/>
<path class="st0" d="M87.4,22.1c-0.1,0.7-0.2,1.4-0.2,2c0,1,0.4,1.3,1.1,1.3c0.9,0,1.3,0,1.3,1.2c0,3.4-6.2,5.7-8.4,5.7
	c-2.4,0-1.3-3.9-2.6-3.9c-0.8,0-4,4.1-7.8,3.9c-2.1-0.1-3.2-1.7-3.3-4.5c-0.1-2.5,0.8-6.1,1.1-9.1c0.1-1.1,0.4-2.2-0.9-2.3
	c-0.7-0.1-1.6-0.2-1.6-1.4c0-1.8,2.1-3,3.2-3.6c1.8-1,4-1.8,6-1.8c1.4,0,1.9,0.9,1.9,2.5c0,1.7-0.7,5.9-1.1,8.2
	c-0.1,0.6-1,4.9,0.6,4.9c1.2,0,2-1.8,2.4-2.8c1.5-4.1,0.8-9.7,2.5-11.3c1-1.1,3.7-1.5,5-1.5c1.1,0,2.1,0.4,2.1,1.9
	c0,0.6-0.1,1.6-0.2,2.2L87.4,22.1z"/>
<path class="st0" d="M101.7,26.2c0.2,4.3-1.3,5.9-6.4,6.2c-1.4,0.1-2.8-0.4-2.8-2.3c0-2.6,1.5-8.1,1.6-12.2c0-1.2-0.1-1.5-1.1-1.5
	c-1.1,0-1.7-0.4-1.7-1.9c0-2.4,3-3.1,4.4-3.9c1-0.6,2.2-1.1,3.4-1.1c2.3,0,1.3,4.2,2.4,4.2c1.1,0,1-4.2,4.4-4.2c2.4,0,4,2.5,4,5.2
	c0,2.7-1.1,5.3-3.6,5.3c-1.3,0-1.9-0.6-2.5-1.9c-0.1-0.3-0.4-1.1-0.7-1.1c-0.5,0-0.7,1.9-0.8,2.2L101.7,26.2z"/>
<path class="st0" d="M113,19.6c0.1-1,0.3-1.8,0.3-2.4c0-0.6-0.2-0.9-0.8-0.9c-0.6,0-1.4,0-1.4-1.5c0-1.9,1.7-2.7,2.9-3.3
	c1.7-0.9,4.6-1.8,6.4-1.8c1.1,0,1.7,0.7,1.7,2c0,1.9-0.6,5.6-0.6,6.2c-0.1,0.5-0.7,5.5-0.9,7.3c-0.1,0.8,0.4,0.8,1,0.8
	c0.7,0,1.2,0,1.2,1.1c0,3.3-5.8,5.4-8,5.4c-1.4,0-3-1-3-2.9c0-0.8,0.1-1.6,0.2-2.5L113,19.6z M112.8,5.3c0-3.5,5.3-5.3,7.7-5.3
	c1.3,0,3.1,0.6,3.1,2.5c0,3.2-5.2,5.4-7.4,5.2C114.8,7.7,112.8,7.3,112.8,5.3z"/>
<path class="st0" d="M138.5,16.2c-1.5,0-1.5-2.6-2.9-2.6c-0.6,0-1.1,0.5-1.1,1.3c0,2.9,5.3,5,5.3,10.2c0,5.5-5.4,7.4-9.1,7.4
	c-2.4,0-6.7-0.8-6.7-4.5c0-1.3,0.7-3.1,2-3.1c1.6,0,1.3,2.9,3.1,2.9c0.7,0,1.6-0.5,1.6-1.5c0-2.3-4.6-4.6-4.6-9.5
	c0-5.3,5.1-7.7,8.9-7.7c1.9,0,5.6,0.7,5.6,3.7C140.5,14.3,139.8,16.2,138.5,16.2z"/>
<path class="st1" d="M29.2,42.6c0.3,0,0.9,0,0.9,0.5c0,0.6-0.4,1.1-0.7,1.5c-0.1,0.2-2.3,2.8-2.3,3.3c0,0.2,0.1,0.3,0.3,0.3
	c0.2,0,0.4,0,0.5-0.1c0.6-0.1,0.6-0.2,0.7-0.4c0.2-0.3,0.3-0.6,0.6-0.6c0.5,0,0.6,0.5,0.6,1c0,0.9-0.6,2.9-1.4,2.9
	c-0.3,0-0.5-0.1-0.9-0.1h-3.2c-0.4,0-0.8-0.1-0.8-0.7c0-0.4,0.2-0.6,0.4-0.8c0.7-1,2.5-3.2,2.7-3.9c0.1-0.2-0.3-0.3-0.5-0.3
	c-0.9,0-1,0.1-1.3,0.6c-0.1,0.2-0.2,0.3-0.4,0.3c-0.5,0-0.7-0.7-0.7-1.2c0-0.6,0.5-2.7,1.2-2.7c0.1,0,0.2,0,0.3,0.1
	c0.3,0.1,0.7,0.1,1,0.1H29.2z"/>
<path class="st1" d="M30.6,47.9c0-3.2,2.1-5.5,4.8-5.5c1.8,0,3.2,1.1,3.2,3.3c0,3.2-2.1,5.5-4.8,5.5C32.1,51.2,30.6,50.1,30.6,47.9z
	 M34.1,45.7c-0.2,0.9-0.3,2-0.3,2.9c0,0.4,0.1,0.8,0.5,0.8c0.6,0,0.7-1,0.8-1.5c0.1-0.9,0.3-2.1,0.3-3c0-0.4-0.1-0.8-0.5-0.8
	C34.3,44.1,34.2,45.2,34.1,45.7z"/>
<path class="st1" d="M43.2,48.8c0.1,1.6-0.5,2.2-2.4,2.3c-0.5,0-1.1-0.1-1.1-0.9c0-1,0.6-3.1,0.6-4.6c0-0.5,0-0.6-0.4-0.6
	c-0.4,0-0.7-0.1-0.7-0.7c0-0.9,1.1-1.2,1.7-1.5c0.4-0.2,0.8-0.4,1.3-0.4c0.9,0,0.5,1.6,0.9,1.6c0.4,0,0.4-1.6,1.7-1.6
	c0.9,0,1.5,0.9,1.5,2c0,1-0.4,2-1.4,2c-0.5,0-0.7-0.2-0.9-0.7c0-0.1-0.2-0.4-0.3-0.4c-0.2,0-0.3,0.7-0.3,0.9L43.2,48.8z"/>
<path class="st1" d="M52.3,49.1c1,0,1.8,0.6,1.8,1.8c0,2.3-2.5,3-4.1,3c-1,0-3.3-0.3-3.3-1.9c0-0.6,0.4-0.7,0.4-0.9
	c0-0.2-0.5-0.5-0.5-1.3c0-0.7,0.5-1.3,1-1.5c0.1-0.1,0.3-0.1,0.3-0.3c0-0.2-0.1-0.2-0.2-0.3c-0.5-0.5-0.7-1-0.7-1.8
	c0-2.4,2.2-3.5,3.9-3.5c0.2,0,0.5,0,0.7,0.1c0.2,0,0.5,0.1,0.7,0.1c0.8,0,0.8-1.1,1.3-1.1c0.4,0,0.9,0.7,0.9,1.2
	c0,0.5-0.3,0.8-0.3,0.9c0,0.1,0.4,0.5,0.4,1.4c-0.2,2.7-2.2,3.4-4,3.4c-0.7,0-1.1-0.1-1.3-0.1c-0.2,0-0.3,0.2-0.3,0.4
	c0,0.6,0.9,0.5,1.2,0.5L52.3,49.1z M51.2,52.1c0-0.2-0.2-0.3-0.3-0.3c-1.1,0.2-2.2-0.2-2.5-0.1c-0.1,0-0.1,0.2-0.1,0.3
	c0,0.7,1.1,0.8,1.5,0.8C50.2,52.8,51.2,52.7,51.2,52.1z M51.6,44.4c0-0.4-0.1-0.7-0.4-0.7c-0.8,0-0.9,1.9-0.9,2.6
	c0,0.4,0.1,0.6,0.5,0.6C51.4,47,51.5,45.1,51.6,44.4z"/>
<path class="st1" d="M85.6,49.8c-0.2,0-1.3,1.4-3,1.4c-1.3,0-2-1-2-2.5c0-1.1,0.4-2.9,0.4-3.4c0-0.4-0.1-0.4-0.4-0.5
	c-0.3,0-0.4-0.3-0.4-0.6c0-0.7,0.5-0.9,0.9-1.1c0.6-0.3,1.8-0.7,2.4-0.7c0.6,0,0.7,0.5,0.7,1.1c0,1.1-0.4,2.7-0.5,3.8
	c-0.1,0.7,0,1.5,0.4,1.5c1.3,0,1.5-3.4,1.5-4.3c0-1.8,1.1-1.9,2.6-2c0.5,0,0.8,0.1,0.8,0.8c0,1.5-0.6,3.2-0.6,4.4
	c0,0.9,0.1,1.5,0.6,1.5c1.1,0,1.7-1.9,1.7-3c0-1.4-0.7-2-0.7-2.7c0-0.6,0.6-0.9,1-0.9c1.1,0,1.3,0.9,1.3,2c0.1,3.4-1.4,6.7-4.4,6.7
	C86.3,51.2,85.8,49.8,85.6,49.8z"/>
<path class="st1" d="M100.2,44.4c0,2-1.9,3.6-3.5,3.6c-0.2,0-0.5,0-0.5,0.3c0,0.5,0.5,0.7,0.9,0.7c1,0,1.8-0.9,2.2-0.9
	c0.3,0,0.6,0.4,0.6,0.7c0,0.9-0.9,1.4-1.5,1.7c-0.8,0.4-1.5,0.7-2.4,0.7c-1.7,0-3.2-0.9-3.1-3.1c0.1-3.5,2.8-5.7,5.4-5.7
	C99.2,42.4,100.2,42.9,100.2,44.4z M96.1,46.1c0,0.2,0.1,0.5,0.3,0.5c0.4,0,1.1-1.2,1-2c0-0.2-0.1-0.5-0.3-0.5
	C96.5,44,96.1,45.6,96.1,46.1z"/>
<path class="st1" d="M104.7,48.8c0.1,1.6-0.5,2.2-2.4,2.3c-0.5,0-1.1-0.1-1.1-0.9c0-1,0.6-3.1,0.6-4.6c0-0.5,0-0.6-0.4-0.6
	c-0.4,0-0.7-0.1-0.7-0.7c0-0.9,1.1-1.2,1.7-1.5c0.4-0.2,0.8-0.4,1.3-0.4c0.9,0,0.5,1.6,0.9,1.6c0.4,0,0.4-1.6,1.7-1.6
	c0.9,0,1.5,0.9,1.5,2c0,1-0.4,2-1.4,2c-0.5,0-0.7-0.2-0.9-0.7c0-0.1-0.2-0.4-0.3-0.4c-0.2,0-0.3,0.7-0.3,0.9L104.7,48.8z"/>
<path class="st1" d="M112.1,43c0,0.1-0.1,0.7,0.1,0.7c0.1,0,0.3-0.2,0.4-0.3c0.6-0.5,1.2-1,2.1-1c1.1,0,1.8,0.7,1.8,2.1
	c0,1.1-0.6,1.8-1.4,2.2c-0.1,0.1-0.3,0.1-0.3,0.3c0,0.1,0.1,0.3,0.1,0.3l0.6,1.2c0.1,0.2,0.2,0.3,0.3,0.4c0.3,0.1,0.4,0.2,0.4,0.5
	c0,1.1-1.9,1.7-2.6,1.7c-0.9,0-1-0.9-1.3-1.7c-0.1-0.2-0.3-1.1-0.5-1.1c-0.2,0-0.3,0.5-0.3,0.7c-0.1,1.5-0.3,1.9-2.2,2.1
	c-0.6,0.1-1-0.2-1-0.9c0-0.3,0-0.5,0.1-0.7c0.3-1.9,0.9-5.3,0.9-7.4c0-0.5,0-0.7-0.5-0.7c-0.3,0-0.5,0-0.5-0.4
	c-0.1-1.5,2.7-1.9,3.5-1.9c0.4,0,0.7,0.1,0.7,0.7c0,0.3-0.1,0.7-0.1,1L112.1,43z M113.3,45.3c0-0.3-0.1-0.5-0.3-0.5
	c-0.7,0-1.3,1.5-1.3,2.2c0,0.1,0,0.2,0.1,0.2C112.3,47.2,113.3,46.1,113.3,45.3z"/>
<path class="st1" d="M74.7,57.7l0-0.1l0-0.1l0-0.1l0-0.1l-0.2-0.4l-0.2-0.5L74,56.2l-0.2-0.4l-0.1-0.3l-0.1-0.1l-0.1-0.1L73.5,55
	l-0.1-0.2l-0.1-0.3l-0.1-0.2l-0.1-0.3l-0.1-0.3l-0.1-0.3l-0.1-0.3l-0.1-0.2l-0.1-0.2l-0.1-0.4l-0.1-0.3l-0.1-0.3L72,51.1l-0.2-0.4
	l-0.1-0.3L71.5,50l-0.2-0.5l-0.1-0.4l-0.1-0.3L71,48.5l-0.1-0.2l-0.1-0.2l-0.2-0.5l0.4-0.8l0.4-1l0.2-0.6l0.3-1l0.2-0.8l0.1-0.7
	l0-0.3l-0.1-0.6L72,41l-0.1-0.7l-0.2-0.8l-0.2-0.9l-0.2-0.9l-0.1-0.3L71,37.1l-0.2-0.3l-0.2-0.3l-0.3-0.3L70.1,36l-0.3-0.2l-0.3-0.1
	l-0.2-0.1l-0.2-0.1l-0.4-0.1h-0.2l-0.3,0l-0.3,0l-0.3,0.1l-0.2,0.1l-0.3,0.1L67,36.1l-0.3,0.2l-0.2,0.2l-0.2,0.2l-0.2,0.2l-0.2,0.3
	l-0.2,0.3l-0.2,0.3L65.3,38l-0.2,0.4l-0.2,0.4l-0.2,0.4l-0.2,0.4l-0.2,0.4l-0.1,0.3l-0.1,0.3L64,41l0,0.3l0,0.4l0,0.3l0,0.3l0.1,0.5
	l0.1,0.4l0.2,0.7l0.2,0.6l0.2,0.4l0.2,0.4l0.2,0.6l0.2,0.4l0.2,0.4l0.2,0.4l0.2,0.3l0.1,0.3l-0.1,0.2l-0.2,0.5l-0.2,0.4l-0.2,0.4
	l-0.2,0.4l-0.5,1l-3.2,6.7l0,0l0.3,0.2l0.2,0.2l0.2,0.2l0.2,0.2l0.1,0.2l0.1,0.2l0.1,0.1l0.1,0.2l0,0.1l0,0.1l0.1,0.1l0.1,0.2l0,0.1
	l0,0.1l0.1,0.1l0.1,0.1l0,0.1l0,0.1l0,0.1l0.1,0.1l0.1,0.1l0.1,0.1l0.1,0.1l0.1,0.1l0.1,0.1l0.1,0.1l0.1,0.1l0.1,0.1l0.1,0.1
	l0.1,0.1l0.1,0.1l0.1,0.1l0,0l0.6-1.4l0.5-1l2.5-5.4l0.5-1.1l0,0l0,0l0,0.1l0,0.1l0.1,0.2l0.2,0.4l0.1,0.3l0.2,0.4l0.1,0.1l0.2,0.4
	l0.2,0.4l0.4,0.9l0.3,0.7l0.3,0.7l0.3,0.8l0.3,0.6l0.2,0.6l0.2,0.5l0.1,0.3l0.1,0.2l0.7,1.6l0.4-0.5l0.1-0.2l0.2-0.2l0.2-0.2
	l0.2-0.2l0.2-0.2l0.1-0.1l0.1-0.1l0.1-0.1l0.1-0.1l0.1-0.1l0.1-0.1l0.1-0.1l0.1-0.1l0.1-0.2l0.1-0.2l0-0.2l0-0.1l0-0.2l0.1-0.1
	l0.1-0.1l0.1-0.1l0.1-0.1l0.1-0.1l0.1-0.1L74.7,57.7L74.7,57.7z M67.9,45.6L67.9,45.6l-1.8-4.7l0.3-0.1l0.3-0.1l0.4-0.1l0.3,0h0.3
	l0.3,0.1l0.3,0.1l0.3,0.1l0.2,0.1l0.3,0.1l0.4,0.2l0.4,0.3L67.9,45.6z"/>
</svg>
